<svg xmlns="http://www.w3.org/2000/svg" width="1400" height="416" viewBox="0 0 1400 416">
<style>
.title { font: 700 24px -apple-system, BlinkMacSystemFont, Segoe UI, Roboto, sans-serif; fill: #111827; }
.label { font: 13px -apple-system, BlinkMacSystemFont, Segoe UI, Roboto, sans-serif; fill: #111827; }
.value { font: 12px -apple-system, BlinkMacSystemFont, Segoe UI, Roboto, sans-serif; fill: #1f2937; }
.grid { stroke: #e5e7eb; stroke-width: 1; }
</style>
<rect width="100%" height="100%" fill="#ffffff"/>
<text class="title" x="24" y="40">Stable Ranking (Mean Rank Score Across 3 Judge Passes)</text>
<line class="grid" x1="520.0" y1="70" x2="520.0" y2="386" />
<line class="grid" x1="672.0" y1="70" x2="672.0" y2="386" />
<line class="grid" x1="824.0" y1="70" x2="824.0" y2="386" />
<line class="grid" x1="976.0" y1="70" x2="976.0" y2="386" />
<line class="grid" x1="1128.0" y1="70" x2="1128.0" y2="386" />
<line class="grid" x1="1280.0" y1="70" x2="1280.0" y2="386" />
<text class="label" x="510" y="94" text-anchor="end">gpt-5.2 | counterweight-v1</text>
<rect x="520" y="80" width="760.0" height="20" fill="#1d4ed8" rx="4" ry="4" />
<text class="value" x="1288.0" y="94">106.41</text>
<text class="label" x="510" y="128" text-anchor="end">gpt-5.2 | counterweight-v2-failure-aware</text>
<rect x="520" y="114" width="753.6" height="20" fill="#1d4ed8" rx="4" ry="4" />
<text class="value" x="1281.6" y="128">105.52</text>
<text class="label" x="510" y="162" text-anchor="end">gpt-5.2-pro | counterweight-v1</text>
<rect x="520" y="148" width="752.3" height="20" fill="#1d4ed8" rx="4" ry="4" />
<text class="value" x="1280.3" y="162">105.33</text>
<text class="label" x="510" y="196" text-anchor="end">gpt-5.2-pro | counterweight-v2-failure-aware</text>
<rect x="520" y="182" width="750.5" height="20" fill="#1d4ed8" rx="4" ry="4" />
<text class="value" x="1278.5" y="196">105.09</text>
<text class="label" x="510" y="230" text-anchor="end">gpt-5.2-pro | baseline-helpful</text>
<rect x="520" y="216" width="736.9" height="20" fill="#1d4ed8" rx="4" ry="4" />
<text class="value" x="1264.9" y="230">103.18</text>
<text class="label" x="510" y="264" text-anchor="end">claude-opus-4-6 | counterweight-v2-failure-aware</text>
<rect x="520" y="250" width="732.8" height="20" fill="#1d4ed8" rx="4" ry="4" />
<text class="value" x="1260.8" y="264">102.60</text>
<text class="label" x="510" y="298" text-anchor="end">gpt-5.2 | baseline-helpful</text>
<rect x="520" y="284" width="728.2" height="20" fill="#1d4ed8" rx="4" ry="4" />
<text class="value" x="1256.2" y="298">101.96</text>
<text class="label" x="510" y="332" text-anchor="end">claude-opus-4-6 | counterweight-v1</text>
<rect x="520" y="318" width="703.8" height="20" fill="#1d4ed8" rx="4" ry="4" />
<text class="value" x="1231.8" y="332">98.55</text>
<text class="label" x="510" y="366" text-anchor="end">claude-opus-4-6 | baseline-helpful</text>
<rect x="520" y="352" width="684.7" height="20" fill="#1d4ed8" rx="4" ry="4" />
<text class="value" x="1212.7" y="366">95.88</text>
</svg>
